<?xml version="1.0" encoding="UTF-8"?>
<!DOCTYPE svg PUBLIC "-//W3C//DTD SVG 1.1//EN" "http://www.w3.org/Graphics/SVG/1.1/DTD/svg11.dtd">
<svg xmlns="http://www.w3.org/2000/svg" version="1.1" width="512px" height="512px" style="shape-rendering:geometricPrecision; text-rendering:geometricPrecision; image-rendering:optimizeQuality; fill-rule:evenodd; clip-rule:evenodd" xmlns:xlink="http://www.w3.org/1999/xlink">
<g><path style="opacity:0.966" fill="#773d00" d="M 266.5,95.5 C 259.167,95.5 251.833,95.5 244.5,95.5C 244.333,72.8309 244.5,50.1642 245,27.5C 248.77,20.5864 254.27,18.7531 261.5,22C 263.378,23.5429 264.878,25.3762 266,27.5C 266.5,50.1642 266.667,72.8309 266.5,95.5 Z"/></g>
<g><path style="opacity:0.996" fill="#b35b00" d="M 244.5,95.5 C 251.833,95.5 259.167,95.5 266.5,95.5C 290.872,95.0602 315.205,95.5602 339.5,97C 381.529,108.029 406.696,134.862 415,177.5C 416.145,187.005 415.478,196.338 413,205.5C 409.421,213.917 403.255,219.251 394.5,221.5C 392.199,222.06 389.866,222.56 387.5,223C 298.5,223.667 209.5,223.667 120.5,223C 119.099,222.59 117.766,222.09 116.5,221.5C 105.419,218.248 98.5853,210.915 96,199.5C 93.897,154.965 112.73,122.798 152.5,103C 158.639,100.398 164.972,98.3983 171.5,97C 195.795,95.5602 220.128,95.0602 244.5,95.5 Z"/></g>
<g><path style="opacity:0.997" fill="#763c00" d="M 116.5,221.5 C 117.766,222.09 119.099,222.59 120.5,223C 209.5,223.667 298.5,223.667 387.5,223C 389.866,222.56 392.199,222.06 394.5,221.5C 394.856,273.362 386.356,323.695 369,372.5C 355.665,407.02 335.498,436.853 308.5,462C 295.808,472.684 281.808,481.351 266.5,488C 259.167,491.333 251.833,491.333 244.5,488C 218.022,476.536 195.855,459.37 178,436.5C 153.259,403.657 136.593,366.99 128,326.5C 120.474,291.905 116.641,256.905 116.5,221.5 Z"/></g>
</svg>
