<svg width="25" height="25" viewBox="0 0 25 25" fill="none" xmlns="http://www.w3.org/2000/svg">
<path d="M22.5342 6.92385C22.2069 6.16612 21.7351 5.47948 21.145 4.90236C20.5545 4.32352 19.8583 3.86352 19.0942 3.54738C18.3019 3.21826 17.4522 3.0498 16.5942 3.05177C15.3906 3.05177 14.2163 3.38136 13.1958 4.00392C12.9517 4.15285 12.7197 4.72902 12.5 4.90724C12.2803 4.72902 12.0483 4.15285 11.8042 4.00392C10.7837 3.38136 9.60938 3.05177 8.40576 3.05177C7.53906 3.05177 6.69922 3.21779 5.90576 3.54738C5.13916 3.86476 4.44824 4.32131 3.85498 4.90236C3.26415 5.47883 2.79218 6.16563 2.46582 6.92385C2.12646 7.71242 1.95312 8.54982 1.95312 9.41164C1.95312 10.2246 2.11914 11.0718 2.44873 11.9336C2.72461 12.6538 3.12012 13.4009 3.62549 14.1553C4.42627 15.3491 5.52734 16.5943 6.89453 17.8565C9.16016 19.9487 11.4038 21.3941 11.499 21.4527L12.0776 21.8237C12.334 21.9873 12.6636 21.9873 12.9199 21.8237L13.4985 21.4527C13.5938 21.3916 15.835 19.9487 18.103 17.8565C19.4702 16.5943 20.5713 15.3491 21.3721 14.1553C21.8774 13.4009 22.2754 12.6538 22.5488 11.9336C22.8784 11.0718 23.0444 10.2246 23.0444 9.41164C23.0469 8.54982 22.8735 7.71242 22.5342 6.92385ZM12.5 19.8926C12.5 19.8926 3.80859 14.3237 3.80859 9.41164C3.80859 6.92384 5.8667 4.90724 8.40576 4.90724C10.1904 4.90724 11.7383 6.35742 12.5 7.8125C13.2617 6.35742 14.8096 4.90724 16.5942 4.90724C19.1333 4.90724 21.1914 6.92384 21.1914 9.41164C21.1914 14.3237 12.5 19.8926 12.5 19.8926Z" fill="black"/>
</svg>
