<svg width="22" height="18" viewBox="0 0 22 18" fill="none" xmlns="http://www.w3.org/2000/svg">
<path d="M10.1563 3.23688L11 4.56263L11.8437 3.23688C12.7092 1.8768 14.2401 1 16 1C18.7477 1 21 3.25228 21 6C21 7.19912 20.4451 8.49187 19.4748 9.81489C18.5123 11.1275 17.207 12.3795 15.8668 13.476C14.5314 14.5686 13.1911 15.4828 12.1819 16.1251C11.6974 16.4334 11.2914 16.6776 11.0019 16.8473C10.7121 16.6763 10.3056 16.4301 9.82039 16.1195C8.81085 15.4732 7.47008 14.5541 6.13429 13.4582C4.79354 12.3581 3.48771 11.1042 2.52468 9.79315C1.55346 8.47097 1 7.18498 1 6C1 3.25228 3.25228 1 6 1C7.75986 1 9.29084 1.8768 10.1563 3.23688Z" stroke="#F44336" stroke-width="2"/>
</svg>
