<svg width="30" height="30" viewBox="0 0 30 30" fill="none" xmlns="http://www.w3.org/2000/svg">
<path d="M14.9987 9.22119C13.4658 9.22119 11.9956 9.83015 10.9117 10.9141C9.82771 11.9981 9.21875 13.4682 9.21875 15.0012C9.21875 16.5341 9.82771 18.0043 10.9117 19.0883C11.9956 20.1722 13.4658 20.7812 14.9987 20.7812C16.5317 20.7812 18.0019 20.1722 19.0858 19.0883C20.1698 18.0043 20.7787 16.5341 20.7787 15.0012C20.7787 13.4682 20.1698 11.9981 19.0858 10.9141C18.0019 9.83015 16.5317 9.22119 14.9987 9.22119ZM14.9987 18.7549C14.0029 18.7549 13.0478 18.3593 12.3436 17.6551C11.6394 16.9509 11.2437 15.9958 11.2437 14.9999C11.2437 14.0041 11.6394 13.049 12.3436 12.3448C13.0478 11.6406 14.0029 11.2449 14.9987 11.2449C15.9946 11.2449 16.9497 11.6406 17.6539 12.3448C18.3581 13.049 18.7537 14.0041 18.7537 14.9999C18.7537 15.9958 18.3581 16.9509 17.6539 17.6551C16.9497 18.3593 15.9946 18.7549 14.9987 18.7549Z" fill="black"/>
<path d="M21.0075 10.3561C21.7517 10.3561 22.355 9.75284 22.355 9.00863C22.355 8.26443 21.7517 7.66113 21.0075 7.66113C20.2633 7.66113 19.66 8.26443 19.66 9.00863C19.66 9.75284 20.2633 10.3561 21.0075 10.3561Z" fill="black"/>
<path d="M25.6663 7.63885C25.3769 6.89157 24.9347 6.21295 24.3679 5.64642C23.8012 5.07989 23.1224 4.63794 22.375 4.34885C21.5004 4.02054 20.5765 3.84302 19.6425 3.82385C18.4388 3.77135 18.0575 3.75635 15.005 3.75635C11.9525 3.75635 11.5613 3.75635 10.3675 3.82385C9.43424 3.84204 8.51095 4.0196 7.6375 4.34885C6.88992 4.6376 6.21096 5.07944 5.64417 5.64601C5.07738 6.21258 4.63529 6.89138 4.34625 7.63885C4.01788 8.51336 3.84077 9.43739 3.8225 10.3713C3.76875 11.5738 3.7525 11.9551 3.7525 15.0088C3.7525 18.0613 3.7525 18.4501 3.8225 19.6463C3.84125 20.5813 4.0175 21.5038 4.34625 22.3801C4.6361 23.1273 5.07862 23.8058 5.64555 24.3723C6.21247 24.9388 6.89133 25.3808 7.63875 25.6701C8.51054 26.0116 9.43422 26.2018 10.37 26.2326C11.5738 26.2851 11.955 26.3013 15.0075 26.3013C18.06 26.3013 18.4513 26.3013 19.645 26.2326C20.5789 26.2136 21.5028 26.0365 22.3775 25.7088C23.1247 25.4191 23.8033 24.9767 24.37 24.4101C24.9366 23.8434 25.379 23.1648 25.6688 22.4176C25.9975 21.5426 26.1738 20.6201 26.1925 19.6851C26.2463 18.4826 26.2625 18.1013 26.2625 15.0476C26.2625 11.9938 26.2625 11.6063 26.1925 10.4101C26.178 9.46294 25.9999 8.52541 25.6663 7.63885ZM24.1438 19.5538C24.1357 20.2742 24.0042 20.9879 23.755 21.6638C23.5673 22.1499 23.2799 22.5913 22.9113 22.9597C22.5428 23.328 22.1012 23.6152 21.615 23.8026C20.9465 24.0507 20.2405 24.1821 19.5275 24.1913C18.34 24.2463 18.005 24.2601 14.96 24.2601C11.9125 24.2601 11.6013 24.2601 10.3913 24.1913C9.67866 24.1826 8.97291 24.0511 8.305 23.8026C7.81711 23.6163 7.37375 23.3297 7.00361 22.9613C6.63348 22.5929 6.3448 22.1509 6.15625 21.6638C5.91056 20.9952 5.77914 20.2899 5.7675 19.5776C5.71375 18.3901 5.70125 18.0551 5.70125 15.0101C5.70125 11.9638 5.70125 11.6526 5.7675 10.4413C5.77558 9.72138 5.90707 9.00812 6.15625 8.3326C6.5375 7.34635 7.31875 6.5701 8.305 6.1926C8.97324 5.94527 9.67878 5.8138 10.3913 5.80385C11.58 5.7501 11.9138 5.7351 14.96 5.7351C18.0063 5.7351 18.3188 5.7351 19.5275 5.80385C20.2405 5.81243 20.9467 5.94394 21.615 6.1926C22.1012 6.38044 22.5427 6.66785 22.9112 7.03639C23.2798 7.40492 23.5672 7.84644 23.755 8.3326C24.0007 9.00128 24.1321 9.70655 24.1438 10.4188C24.1975 11.6076 24.2113 11.9413 24.2113 14.9876C24.2113 18.0326 24.2113 18.3601 24.1575 19.5551H24.1438V19.5538Z" fill="black"/>
</svg>
