<svg width="244" height="117" viewBox="0 0 244 117" fill="none" xmlns="http://www.w3.org/2000/svg">
<g filter="url(#filter0_d_137_2)">
<path d="M138 108.5C187.664 108.5 219.368 76.0141 232 55C219.368 32.6214 185.664 0.5 136 0.5C91.1985 0.5 52.702 25.2397 45.234 49.7536L26.5564 48.7428L5.20301 47.5L4.30075 51L4 55L4.30075 59L5.20301 62.5L26.5564 60.2213L45.234 58.5C46.5339 84.5079 89.0827 108.5 138 108.5Z" fill="#447931"/>
</g>
<path d="M92.0234 42.5938H97.375V37.9844H103.547V44.7031H109.016V36.0703H115.344V60.875H109.016V49.7422H103.547V56.3438H85.7734V37.9844H92.0234V42.5938ZM88.3906 67.75C90.9948 67.4115 93.1302 66.7995 94.7969 65.9141C96.4896 65.0286 97.7005 64.0391 98.4297 62.9453C99.1849 61.8255 99.5625 60.7578 99.5625 59.7422V58.9609H106.008V59.7422C106.008 60.8359 106.359 61.9427 107.062 63.0625C107.792 64.1562 108.99 65.1328 110.656 65.9922C112.323 66.8516 114.51 67.4375 117.219 67.75L114.953 72.5938C112.01 72.2292 109.523 71.513 107.492 70.4453C105.461 69.3776 103.872 68.0365 102.727 66.4219C101.581 68.0365 99.9922 69.3776 97.9609 70.4453C95.9557 71.5391 93.5078 72.2552 90.6172 72.5938L88.3906 67.75ZM97.375 51.3828V47.3984H92.0234V51.3828H97.375ZM153.547 57.7891H120.383V52.8281H133.82V50.4453H124.289V37.5547H149.68V42.4766H130.539V45.5234H149.836V50.4453H140.109V52.8281H153.547V57.7891ZM123.977 65.9922C123.977 63.8307 125.109 62.151 127.375 60.9531C129.641 59.7552 132.779 59.1562 136.789 59.1562C140.799 59.1562 143.938 59.7552 146.203 60.9531C148.469 62.151 149.602 63.8307 149.602 65.9922C149.602 68.1536 148.469 69.8203 146.203 70.9922C143.938 72.1901 140.799 72.7891 136.789 72.7891C132.779 72.7891 129.641 72.1901 127.375 70.9922C125.109 69.8203 123.977 68.1536 123.977 65.9922ZM130.344 65.9922C130.344 66.7474 130.852 67.2812 131.867 67.5938C132.883 67.9062 134.523 68.0625 136.789 68.0625C139.055 68.0625 140.695 67.9062 141.711 67.5938C142.727 67.2812 143.234 66.7474 143.234 65.9922C143.234 65.237 142.727 64.7031 141.711 64.3906C140.695 64.0521 139.055 63.8828 136.789 63.8828C134.523 63.8828 132.883 64.0521 131.867 64.3906C130.852 64.7031 130.344 65.237 130.344 65.9922ZM189.445 68.6484H156.281V63.5703H169.523V55.7969H175.812V63.5703H189.445V68.6484ZM156.75 52.125C159.693 51.6823 162.102 50.8359 163.977 49.5859C165.852 48.3359 167.206 46.9036 168.039 45.2891C168.872 43.6745 169.289 42.0469 169.289 40.4062V37.8672H176.047V40.4062C176.047 42.099 176.451 43.7526 177.258 45.3672C178.091 46.9557 179.445 48.375 181.32 49.625C183.195 50.849 185.617 51.6823 188.586 52.125L186.008 57.3984C182.779 56.8255 180.044 55.8099 177.805 54.3516C175.591 52.8672 173.872 51.0443 172.648 48.8828C171.424 51.0443 169.693 52.8672 167.453 54.3516C165.24 55.8099 162.531 56.8255 159.328 57.3984L156.75 52.125Z" fill="#FFB71F"/>
<path d="M92.0234 42.5938H91.5234V43.0938H92.0234V42.5938ZM97.375 42.5938V43.0938H97.875V42.5938H97.375ZM97.375 37.9844V37.4844H96.875V37.9844H97.375ZM103.547 37.9844H104.047V37.4844H103.547V37.9844ZM103.547 44.7031H103.047V45.2031H103.547V44.7031ZM109.016 44.7031V45.2031H109.516V44.7031H109.016ZM109.016 36.0703V35.5703H108.516V36.0703H109.016ZM115.344 36.0703H115.844V35.5703H115.344V36.0703ZM115.344 60.875V61.375H115.844V60.875H115.344ZM109.016 60.875H108.516V61.375H109.016V60.875ZM109.016 49.7422H109.516V49.2422H109.016V49.7422ZM103.547 49.7422V49.2422H103.047V49.7422H103.547ZM103.547 56.3438V56.8438H104.047V56.3438H103.547ZM85.7734 56.3438H85.2734V56.8438H85.7734V56.3438ZM85.7734 37.9844V37.4844H85.2734V37.9844H85.7734ZM92.0234 37.9844H92.5234V37.4844H92.0234V37.9844ZM88.3906 67.75L88.3262 67.2542L87.6527 67.3417L87.9363 67.9588L88.3906 67.75ZM94.7969 65.9141L94.5651 65.471L94.5623 65.4725L94.7969 65.9141ZM98.4297 62.9453L98.0151 62.6657L98.0137 62.668L98.4297 62.9453ZM99.5625 58.9609V58.4609H99.0625V58.9609H99.5625ZM106.008 58.9609H106.508V58.4609H106.008V58.9609ZM107.062 63.0625L106.639 63.3285L106.646 63.3399L107.062 63.0625ZM117.219 67.75L117.672 67.9618L117.966 67.3329L117.276 67.2533L117.219 67.75ZM114.953 72.5938L114.892 73.09L115.252 73.1346L115.406 72.8056L114.953 72.5938ZM107.492 70.4453L107.26 70.8879L107.492 70.4453ZM102.727 66.4219L103.134 66.1325L102.727 65.5579L102.319 66.1325L102.727 66.4219ZM97.9609 70.4453L97.7283 70.0027L97.7215 70.0064L97.9609 70.4453ZM90.6172 72.5938L90.1629 72.8026L90.3146 73.1326L90.6753 73.0904L90.6172 72.5938ZM97.375 51.3828V51.8828H97.875V51.3828H97.375ZM97.375 47.3984H97.875V46.8984H97.375V47.3984ZM92.0234 47.3984V46.8984H91.5234V47.3984H92.0234ZM92.0234 51.3828H91.5234V51.8828H92.0234V51.3828ZM92.0234 43.0938H97.375V42.0938H92.0234V43.0938ZM97.875 42.5938V37.9844H96.875V42.5938H97.875ZM97.375 38.4844H103.547V37.4844H97.375V38.4844ZM103.047 37.9844V44.7031H104.047V37.9844H103.047ZM103.547 45.2031H109.016V44.2031H103.547V45.2031ZM109.516 44.7031V36.0703H108.516V44.7031H109.516ZM109.016 36.5703H115.344V35.5703H109.016V36.5703ZM114.844 36.0703V60.875H115.844V36.0703H114.844ZM115.344 60.375H109.016V61.375H115.344V60.375ZM109.516 60.875V49.7422H108.516V60.875H109.516ZM109.016 49.2422H103.547V50.2422H109.016V49.2422ZM103.047 49.7422V56.3438H104.047V49.7422H103.047ZM103.547 55.8438H85.7734V56.8438H103.547V55.8438ZM86.2734 56.3438V37.9844H85.2734V56.3438H86.2734ZM85.7734 38.4844H92.0234V37.4844H85.7734V38.4844ZM91.5234 37.9844V42.5938H92.5234V37.9844H91.5234ZM88.4551 68.2458C91.0972 67.9024 93.2955 67.2779 95.0315 66.3556L94.5623 65.4725C92.9649 66.3211 90.8924 66.9206 88.3262 67.2542L88.4551 68.2458ZM95.0286 66.3571C96.7642 65.4492 98.0536 64.4108 98.8457 63.2227L98.0137 62.668C97.3474 63.6674 96.2149 64.608 94.5651 65.471L95.0286 66.3571ZM98.8442 63.2249C99.6371 62.0493 100.062 60.8854 100.062 59.7422H99.0625C99.0625 60.6302 98.7327 61.6018 98.0152 62.6657L98.8442 63.2249ZM100.062 59.7422V58.9609H99.0625V59.7422H100.062ZM99.5625 59.4609H106.008V58.4609H99.5625V59.4609ZM105.508 58.9609V59.7422H106.508V58.9609H105.508ZM105.508 59.7422C105.508 60.948 105.896 62.1457 106.639 63.3284L107.486 62.7966C106.822 61.7397 106.508 60.7239 106.508 59.7422H105.508ZM106.646 63.3399C107.439 64.528 108.715 65.5539 110.427 66.4366L110.885 65.5478C109.264 64.7117 108.145 63.7845 107.479 62.7851L106.646 63.3399ZM110.427 66.4366C112.166 67.3331 114.418 67.9301 117.161 68.2467L117.276 67.2533C114.603 66.9449 112.48 66.37 110.885 65.5478L110.427 66.4366ZM116.766 67.5382L114.5 72.3819L115.406 72.8056L117.672 67.9618L116.766 67.5382ZM115.015 72.0975C112.115 71.7383 109.69 71.0355 107.725 70.0027L107.26 70.8879C109.357 71.9905 111.906 72.72 114.892 73.09L115.015 72.0975ZM107.725 70.0027C105.752 68.9658 104.228 67.6735 103.134 66.1325L102.319 66.7113C103.517 68.3994 105.17 69.7894 107.26 70.8879L107.725 70.0027ZM102.319 66.1325C101.225 67.6735 99.701 68.9658 97.7283 70.0027L98.1936 70.8879C100.283 69.7894 101.936 68.3994 103.134 66.7113L102.319 66.1325ZM97.7215 70.0064C95.7856 71.0623 93.4028 71.7641 90.559 72.0971L90.6753 73.0904C93.6128 72.7463 96.1259 72.0158 98.2004 70.8843L97.7215 70.0064ZM91.0715 72.3849L88.8449 67.5412L87.9363 67.9588L90.1629 72.8026L91.0715 72.3849ZM97.875 51.3828V47.3984H96.875V51.3828H97.875ZM97.375 46.8984H92.0234V47.8984H97.375V46.8984ZM91.5234 47.3984V51.3828H92.5234V47.3984H91.5234ZM92.0234 51.8828H97.375V50.8828H92.0234V51.8828ZM153.547 57.7891V58.2891H154.047V57.7891H153.547ZM120.383 57.7891H119.883V58.2891H120.383V57.7891ZM120.383 52.8281V52.3281H119.883V52.8281H120.383ZM133.82 52.8281V53.3281H134.32V52.8281H133.82ZM133.82 50.4453H134.32V49.9453H133.82V50.4453ZM124.289 50.4453H123.789V50.9453H124.289V50.4453ZM124.289 37.5547V37.0547H123.789V37.5547H124.289ZM149.68 37.5547H150.18V37.0547H149.68V37.5547ZM149.68 42.4766V42.9766H150.18V42.4766H149.68ZM130.539 42.4766V41.9766H130.039V42.4766H130.539ZM130.539 45.5234H130.039V46.0234H130.539V45.5234ZM149.836 45.5234H150.336V45.0234H149.836V45.5234ZM149.836 50.4453V50.9453H150.336V50.4453H149.836ZM140.109 50.4453V49.9453H139.609V50.4453H140.109ZM140.109 52.8281H139.609V53.3281H140.109V52.8281ZM153.547 52.8281H154.047V52.3281H153.547V52.8281ZM146.203 70.9922L145.973 70.5481L145.969 70.5502L146.203 70.9922ZM127.375 70.9922L127.609 70.5502L127.605 70.5481L127.375 70.9922ZM141.711 64.3906L141.553 64.8651L141.564 64.8685L141.711 64.3906ZM131.867 64.3906L132.014 64.8686L132.025 64.865L131.867 64.3906ZM153.547 57.2891H120.383V58.2891H153.547V57.2891ZM120.883 57.7891V52.8281H119.883V57.7891H120.883ZM120.383 53.3281H133.82V52.3281H120.383V53.3281ZM134.32 52.8281V50.4453H133.32V52.8281H134.32ZM133.82 49.9453H124.289V50.9453H133.82V49.9453ZM124.789 50.4453V37.5547H123.789V50.4453H124.789ZM124.289 38.0547H149.68V37.0547H124.289V38.0547ZM149.18 37.5547V42.4766H150.18V37.5547H149.18ZM149.68 41.9766H130.539V42.9766H149.68V41.9766ZM130.039 42.4766V45.5234H131.039V42.4766H130.039ZM130.539 46.0234H149.836V45.0234H130.539V46.0234ZM149.336 45.5234V50.4453H150.336V45.5234H149.336ZM149.836 49.9453H140.109V50.9453H149.836V49.9453ZM139.609 50.4453V52.8281H140.609V50.4453H139.609ZM140.109 53.3281H153.547V52.3281H140.109V53.3281ZM153.047 52.8281V57.7891H154.047V52.8281H153.047ZM124.477 65.9922C124.477 64.0541 125.47 62.5258 127.609 61.3951L127.141 60.5111C124.749 61.7763 123.477 63.6073 123.477 65.9922H124.477ZM127.609 61.3951C129.773 60.2509 132.819 59.6562 136.789 59.6562V58.6562C132.739 58.6562 129.508 59.2595 127.141 60.5111L127.609 61.3951ZM136.789 59.6562C140.76 59.6562 143.805 60.2509 145.969 61.3951L146.437 60.5111C144.07 59.2595 140.839 58.6562 136.789 58.6562V59.6562ZM145.969 61.3951C148.108 62.5258 149.102 64.0541 149.102 65.9922H150.102C150.102 63.6073 148.83 61.7763 146.437 60.5111L145.969 61.3951ZM149.102 65.9922C149.102 66.9803 148.844 67.8379 148.338 68.5822C147.83 69.3308 147.052 69.9904 145.973 70.5481L146.433 71.4363C147.62 70.8221 148.541 70.0624 149.165 69.1443C149.792 68.222 150.102 67.1655 150.102 65.9922H149.102ZM145.969 70.5502C143.805 71.6944 140.76 72.2891 136.789 72.2891V73.2891C140.839 73.2891 144.07 72.6858 146.437 71.4342L145.969 70.5502ZM136.789 72.2891C132.819 72.2891 129.773 71.6944 127.609 70.5502L127.141 71.4342C129.508 72.6858 132.739 73.2891 136.789 73.2891V72.2891ZM127.605 70.5481C126.527 69.9904 125.749 69.3308 125.24 68.5822C124.734 67.8379 124.477 66.9803 124.477 65.9922H123.477C123.477 67.1655 123.786 68.222 124.413 69.1443C125.037 70.0624 125.958 70.8221 127.145 71.4363L127.605 70.5481ZM129.844 65.9922C129.844 66.4945 130.018 66.9412 130.362 67.3036C130.696 67.6542 131.164 67.9006 131.72 68.0716L132.014 67.1159C131.554 66.9744 131.261 66.7977 131.087 66.6144C130.924 66.4429 130.844 66.2451 130.844 65.9922H129.844ZM131.72 68.0716C132.812 68.4076 134.517 68.5625 136.789 68.5625V67.5625C134.53 67.5625 132.954 67.4049 132.014 67.1159L131.72 68.0716ZM136.789 68.5625C139.061 68.5625 140.766 68.4076 141.858 68.0716L141.564 67.1159C140.625 67.4049 139.048 67.5625 136.789 67.5625V68.5625ZM141.858 68.0716C142.414 67.9006 142.882 67.6542 143.216 67.3036C143.561 66.9412 143.734 66.4945 143.734 65.9922H142.734C142.734 66.2451 142.654 66.4429 142.491 66.6144C142.317 66.7977 142.024 66.9744 141.564 67.1159L141.858 68.0716ZM143.734 65.9922C143.734 65.4899 143.561 65.0432 143.216 64.6808C142.882 64.3302 142.414 64.0838 141.858 63.9127L141.564 64.8685C142.024 65.01 142.317 65.1867 142.491 65.37C142.654 65.5414 142.734 65.7393 142.734 65.9922H143.734ZM141.869 63.9163C140.772 63.5506 139.062 63.3828 136.789 63.3828V64.3828C139.047 64.3828 140.619 64.5536 141.553 64.865L141.869 63.9163ZM136.789 63.3828C134.516 63.3828 132.806 63.5506 131.709 63.9163L132.025 64.865C132.959 64.5536 134.531 64.3828 136.789 64.3828V63.3828ZM131.72 63.9127C131.164 64.0838 130.696 64.3302 130.362 64.6808C130.018 65.0432 129.844 65.4899 129.844 65.9922H130.844C130.844 65.7393 130.924 65.5414 131.087 65.37C131.261 65.1867 131.554 65.01 132.014 64.8685L131.72 63.9127ZM189.445 68.6484V69.1484H189.945V68.6484H189.445ZM156.281 68.6484H155.781V69.1484H156.281V68.6484ZM156.281 63.5703V63.0703H155.781V63.5703H156.281ZM169.523 63.5703V64.0703H170.023V63.5703H169.523ZM169.523 55.7969V55.2969H169.023V55.7969H169.523ZM175.812 55.7969H176.312V55.2969H175.812V55.7969ZM175.812 63.5703H175.312V64.0703H175.812V63.5703ZM189.445 63.5703H189.945V63.0703H189.445V63.5703ZM156.75 52.125L156.676 51.6306L156.001 51.732L156.301 52.3446L156.75 52.125ZM169.289 37.8672V37.3672H168.789V37.8672H169.289ZM176.047 37.8672H176.547V37.3672H176.047V37.8672ZM177.258 45.3672L176.811 45.5908L176.815 45.5995L177.258 45.3672ZM181.32 49.625L181.043 50.041L181.047 50.0437L181.32 49.625ZM188.586 52.125L189.035 52.3446L189.335 51.7312L188.66 51.6305L188.586 52.125ZM186.008 57.3984L185.92 57.8907L186.291 57.9566L186.457 57.618L186.008 57.3984ZM177.805 54.3516L177.526 54.7669L177.532 54.7706L177.805 54.3516ZM172.648 48.8828L173.084 48.6364L172.648 47.8681L172.213 48.6364L172.648 48.8828ZM167.453 54.3516L167.728 54.7691L167.729 54.7683L167.453 54.3516ZM159.328 57.3984L158.879 57.618L159.045 57.9571L159.416 57.8906L159.328 57.3984ZM189.445 68.1484H156.281V69.1484H189.445V68.1484ZM156.781 68.6484V63.5703H155.781V68.6484H156.781ZM156.281 64.0703H169.523V63.0703H156.281V64.0703ZM170.023 63.5703V55.7969H169.023V63.5703H170.023ZM169.523 56.2969H175.812V55.2969H169.523V56.2969ZM175.312 55.7969V63.5703H176.312V55.7969H175.312ZM175.812 64.0703H189.445V63.0703H175.812V64.0703ZM188.945 63.5703V68.6484H189.945V63.5703H188.945ZM156.824 52.6194C159.817 52.1692 162.302 51.3035 164.254 50.002L163.699 49.1699C161.902 50.3683 159.568 51.1954 156.676 51.6306L156.824 52.6194ZM164.254 50.002C166.183 48.7161 167.603 47.2244 168.483 45.5184L167.595 45.0597C166.809 46.5829 165.52 47.9558 163.699 49.1699L164.254 50.002ZM168.483 45.5184C169.349 43.8406 169.789 42.1349 169.789 40.4062H168.789C168.789 41.9588 168.395 43.5083 167.595 45.0597L168.483 45.5184ZM169.789 40.4062V37.8672H168.789V40.4062H169.789ZM169.289 38.3672H176.047V37.3672H169.289V38.3672ZM175.547 37.8672V40.4062H176.547V37.8672H175.547ZM175.547 40.4062C175.547 42.1817 175.971 43.9115 176.811 45.5908L177.705 45.1436C176.93 43.5937 176.547 42.0162 176.547 40.4062H175.547ZM176.815 45.5995C177.696 47.2788 179.116 48.7563 181.043 50.041L181.598 49.209C179.775 47.9937 178.486 46.6327 177.701 45.1349L176.815 45.5995ZM181.047 50.0437C182.999 51.318 185.495 52.1696 188.512 52.6195L188.66 51.6305C185.739 51.1949 183.392 50.3799 181.594 49.2063L181.047 50.0437ZM188.137 51.9054L185.559 57.1788L186.457 57.618L189.035 52.3446L188.137 51.9054ZM186.095 56.9061C182.918 56.3423 180.25 55.3469 178.078 53.9326L177.532 54.7706C179.839 56.2729 182.64 57.3087 185.92 57.8907L186.095 56.9061ZM178.083 53.9363C175.929 52.492 174.266 50.7253 173.084 48.6364L172.213 49.1292C173.478 51.3632 175.253 53.2423 177.526 54.7668L178.083 53.9363ZM172.213 48.6364C171.031 50.7239 169.356 52.4903 167.177 53.9348L167.729 54.7683C170.029 53.2441 171.818 51.3647 173.084 49.1292L172.213 48.6364ZM167.178 53.934C165.032 55.3476 162.391 56.3426 159.24 56.9062L159.416 57.8906C162.671 57.3084 165.447 56.2722 167.728 54.7691L167.178 53.934ZM159.777 57.1788L157.199 51.9054L156.301 52.3446L158.879 57.618L159.777 57.1788Z" fill="#7A4200"/>
<defs>
<filter id="filter0_d_137_2" x="0" y="0.5" width="236" height="116" filterUnits="userSpaceOnUse" color-interpolation-filters="sRGB">
<feFlood flood-opacity="0" result="BackgroundImageFix"/>
<feColorMatrix in="SourceAlpha" type="matrix" values="0 0 0 0 0 0 0 0 0 0 0 0 0 0 0 0 0 0 127 0" result="hardAlpha"/>
<feOffset dy="4"/>
<feGaussianBlur stdDeviation="2"/>
<feComposite in2="hardAlpha" operator="out"/>
<feColorMatrix type="matrix" values="0 0 0 0 0 0 0 0 0 0 0 0 0 0 0 0 0 0 0.25 0"/>
<feBlend mode="normal" in2="BackgroundImageFix" result="effect1_dropShadow_137_2"/>
<feBlend mode="normal" in="SourceGraphic" in2="effect1_dropShadow_137_2" result="shape"/>
</filter>
</defs>
</svg>
