<svg width="22" height="22" viewBox="0 0 22 22" fill="none" xmlns="http://www.w3.org/2000/svg">
<path d="M21.2483 17.6121L17.5319 13.8905L14.6734 12.7078C15.6252 11.3523 16.1351 9.73525 16.1333 8.0782C16.1333 3.62385 12.5146 0 8.06665 0C3.61867 0 0 3.62385 0 8.0782C0 12.5325 3.61867 16.1564 8.06665 16.1564C9.73573 16.1583 11.3638 15.6388 12.7242 14.6703L13.9021 17.5252L17.6183 21.2471C17.8566 21.4858 18.1396 21.6751 18.451 21.8043C18.7624 21.9335 19.0961 22 19.4332 22C19.7703 22 20.104 21.9335 20.4155 21.8044C20.7269 21.6752 21.0098 21.4859 21.2482 21.2472C21.4865 21.0085 21.6756 20.7252 21.8046 20.4133C21.9336 20.1015 22 19.7672 22 19.4297C22 19.0921 21.9336 18.7579 21.8046 18.446C21.6757 18.1342 21.4866 17.8508 21.2483 17.6121ZM1.46666 8.0782C1.46666 4.43383 4.42749 1.46876 8.06665 1.46876C11.7058 1.46876 14.6666 4.43383 14.6666 8.0782C14.6666 11.7226 11.7058 14.6876 8.06665 14.6876C4.42749 14.6876 1.46666 11.7226 1.46666 8.0782ZM20.2111 20.2085C20.0047 20.4148 19.7249 20.5307 19.4333 20.5307C19.1416 20.5307 18.8619 20.4148 18.6555 20.2085L15.1459 16.694L14.0508 14.0394L16.7016 15.1361L20.2112 18.6507C20.4172 18.8575 20.5328 19.1376 20.5328 19.4296C20.5328 19.7217 20.4171 20.0018 20.2111 20.2085Z" fill="#00462A"/>
</svg>
